<?xml version="1.0" standalone="no"?>
<!DOCTYPE svg PUBLIC "-//W3C//DTD SVG 20010904//EN"
 "http://www.w3.org/TR/2001/REC-SVG-20010904/DTD/svg10.dtd">
<svg version="1.0" xmlns="http://www.w3.org/2000/svg"
 width="169.000000pt" height="169.000000pt" viewBox="0 0 169.000000 169.000000"
 preserveAspectRatio="xMidYMid meet">
<metadata>
Created by potrace 1.14, written by Peter Selinger 2001-2017
</metadata>
<g transform="translate(0.000000,169.000000) scale(0.100000,-0.100000)"
fill="#000000" stroke="none">
<path d="M442 1678 c-9 -9 -12 -133 -12 -497 l0 -485 -115 -116 c-136 -138
-160 -180 -159 -285 0 -168 121 -289 289 -289 90 0 152 27 223 97 28 28 52 47
52 41 0 -19 82 -93 128 -115 36 -17 65 -23 122 -23 121 0 143 14 377 246 l203
202 0 606 c0 458 -3 609 -12 618 -17 17 -1079 17 -1096 0z m508 -108 l0 -50
-225 0 -225 0 0 50 0 50 225 0 225 0 0 -50z m530 0 l0 -50 -225 0 -225 0 0 50
0 50 225 0 225 0 0 -50z m-522 -162 l3 -48 -230 0 -231 0 0 50 0 50 228 -2
227 -3 3 -47z m522 2 l0 -50 -225 0 -225 0 0 50 0 49 225 0 225 0 0 -49z
m-520 -411 l0 -292 -124 -127 c-142 -145 -161 -183 -159 -304 1 -65 0 -71 -32
-104 l-33 -36 -79 71 c-43 40 -116 110 -163 157 l-84 86 107 108 107 109 0
312 0 311 230 0 230 0 0 -291z m520 -112 l0 -402 -175 -175 -175 -175 -160
160 -160 160 110 110 110 110 0 308 0 307 225 0 225 0 0 -403z m-957 -804
c-41 -18 -122 -15 -168 6 -107 49 -161 173 -124 281 l12 32 154 -153 153 -154
-27 -12z m402 157 l149 -149 -28 -11 c-37 -14 -99 -13 -149 2 -102 31 -172
155 -147 259 7 27 15 49 19 49 3 0 73 -67 156 -150z"/>
<path d="M1387 1243 c-4 -3 -7 -86 -7 -183 0 -150 2 -180 16 -191 11 -9 20
-10 32 -2 15 9 17 34 20 174 3 191 1 209 -32 209 -12 0 -26 -3 -29 -7z"/>
<path d="M1387 813 c-13 -12 -7 -61 9 -74 33 -27 72 33 44 67 -13 15 -42 19
-53 7z"/>
</g>
</svg>
